<?xml version="1.0" encoding="utf-8"?>
<svg id="master-artboard" viewBox="0 0 1400 980" version="1.1" xmlns="http://www.w3.org/2000/svg" x="0px" y="0px" style="enable-background:new 0 0 1400 980;" width="1400px" height="980px">




<path d="M 1307 426.600006 A 283.700012 14.4 0 0 1 1023.299988 441.000006 A 283.700012 14.4 0 0 1 739.599976 426.600006 A 283.700012 14.4 0 0 1 1023.299988 412.200006 A 283.700012 14.4 0 0 1 1307 426.600006 Z" class="st1" style="fill: rgb(219, 219, 219);" transform="matrix(1, 0, 0, 1, -359.5759693079973, 223.8869242861116)"/>


<g transform="matrix(1, 0, 0, 1, -359.5759693079973, 223.8869242861116)">
	<g>
		<g>
			<path d="M 839.200012 250.100006 H 841.700012 V 426.900009 H 839.200012 V 250.100006 Z"/>
		</g>
		<g>
			<path d="M 752.099976 337.299988 H 928.899979 V 339.799988 H 752.099976 V 337.299988 Z"/>
		</g>
		<g>
			<path d="M 752.099976 337.299988 H 928.899979 V 339.799988 H 752.099976 V 337.299988 Z"/>
		</g>
		<g>
			<path d="M 752.099976 337.299988 H 928.899979 V 339.799988 H 752.099976 V 337.299988 Z" transform="matrix(0.7071 0.7071 -0.7071 0.7071 485.5337 -495.1447)"/>
		</g>
		<g>
			<path d="M 839.200012 250.100006 H 841.700012 V 426.900009 H 839.200012 V 250.100006 Z" transform="matrix(0.7082 0.706 -0.706 0.7082 484.2751 -494.6087)"/>
		</g>
		<g>
			<path d="M 839.200012 250.100006 H 841.700012 V 426.900009 H 839.200012 V 250.100006 Z" transform="matrix(0.7082 0.706 -0.706 0.7082 484.2751 -494.6087)"/>
		</g>
		<g>
			<path d="M 752.099976 337.299988 H 928.899979 V 339.799988 H 752.099976 V 337.299988 Z" transform="matrix(0.9205 0.3908 -0.3908 0.9205 199.0983 -301.4981)"/>
		</g>
		<g>
			<path d="M 839.200012 250.100006 H 841.700012 V 426.900009 H 839.200012 V 250.100006 Z" transform="matrix(0.9209 0.3898 -0.3898 0.9209 198.4162 -300.8156)"/>
		</g>
		<g>
			<path d="M 839.200012 250.100006 H 841.700012 V 426.900009 H 839.200012 V 250.100006 Z" transform="matrix(0.9209 0.3898 -0.3898 0.9209 198.4162 -300.8156)"/>
		</g>
		<g>
			<path d="M 759 372.79998779296875 L 758 370.5 L 921.9000244140625 304.20001220703125 L 922.9000244140625 306.6000061035156 Z"/>
		</g>
		<g>
			<path d="M 752.099976 337.299988 H 928.899979 V 339.799988 H 752.099976 V 337.299988 Z" transform="matrix(0.3746 0.9272 -0.9272 0.3746 839.5037 -567.555)"/>
		</g>
		<g>
			<path d="M 752.099976 337.299988 H 928.899979 V 339.799988 H 752.099976 V 337.299988 Z" transform="matrix(0.3746 0.9272 -0.9272 0.3746 839.5037 -567.555)"/>
		</g>
		<g>
			<path d="M 839.200012 250.100006 H 841.700012 V 426.900009 H 839.200012 V 250.100006 Z"/>
		</g>
		<g>
			<path d="M 752.099976 337.299988 H 928.899979 V 339.799988 H 752.099976 V 337.299988 Z"/>
		</g>
		<g>
			<path d="M 752.099976 337.299988 H 928.899979 V 339.799988 H 752.099976 V 337.299988 Z"/>
		</g>
		<g>
			<path d="M 752.099976 337.299988 H 928.899979 V 339.799988 H 752.099976 V 337.299988 Z" transform="matrix(0.7071 0.7071 -0.7071 0.7071 485.5337 -495.1447)"/>
		</g>
		<g>
			<path d="M 839.200012 250.100006 H 841.700012 V 426.900009 H 839.200012 V 250.100006 Z" transform="matrix(0.7082 0.706 -0.706 0.7082 484.2751 -494.6087)"/>
		</g>
		<g>
			<path d="M 839.200012 250.100006 H 841.700012 V 426.900009 H 839.200012 V 250.100006 Z" transform="matrix(0.7082 0.706 -0.706 0.7082 484.2751 -494.6087)"/>
		</g>
		<g>
			<path d="M 752.099976 337.299988 H 928.899979 V 339.799988 H 752.099976 V 337.299988 Z" transform="matrix(0.9205 0.3908 -0.3908 0.9205 199.0983 -301.4981)"/>
		</g>
		<g>
			<path d="M 839.200012 250.100006 H 841.700012 V 426.900009 H 839.200012 V 250.100006 Z" transform="matrix(0.9209 0.3898 -0.3898 0.9209 198.4162 -300.8156)"/>
		</g>
		<g>
			<path d="M 839.200012 250.100006 H 841.700012 V 426.900009 H 839.200012 V 250.100006 Z" transform="matrix(0.9209 0.3898 -0.3898 0.9209 198.4162 -300.8156)"/>
		</g>
		<g>
			<path d="M 759 372.79998779296875 L 758 370.5 L 921.9000244140625 304.20001220703125 L 922.9000244140625 306.6000061035156 Z"/>
		</g>
		<g>
			<path d="M 752.099976 337.299988 H 928.899979 V 339.799988 H 752.099976 V 337.299988 Z" transform="matrix(0.3746 0.9272 -0.9272 0.3746 839.5037 -567.555)"/>
		</g>
		<g>
			<path d="M 752.099976 337.299988 H 928.899979 V 339.799988 H 752.099976 V 337.299988 Z" transform="matrix(0.3746 0.9272 -0.9272 0.3746 839.5037 -567.555)"/>
		</g>
		<g>
			<path d="M 1198.400024 234 H 1200.900024 V 410.800003 H 1198.400024 V 234 Z"/>
		</g>
		<g>
			<path d="M 1111.300049 321.100006 H 1288.100052 V 323.600006 H 1111.300049 V 321.100006 Z"/>
		</g>
		<g>
			<path d="M 1111.300049 321.100006 H 1288.100052 V 323.600006 H 1111.300049 V 321.100006 Z"/>
		</g>
		<g>
			<path d="M 1111.300049 321.100006 H 1288.100052 V 323.600006 H 1111.300049 V 321.100006 Z" transform="matrix(0.7071 0.7071 -0.7071 0.7071 579.3527 -753.8878)"/>
		</g>
		<g>
			<path d="M 1198.400024 234 H 1200.900024 V 410.800003 H 1198.400024 V 234 Z" transform="matrix(0.7063 0.7079 -0.7079 0.7063 580.5048 -754.5516)"/>
		</g>
		<g>
			<path d="M 1198.400024 234 H 1200.900024 V 410.800003 H 1198.400024 V 234 Z" transform="matrix(0.7063 0.7079 -0.7079 0.7063 580.5048 -754.5516)"/>
		</g>
		<g>
			<path d="M 1280.5 358.1000061035156 L 1117.800048828125 289 L 1118.800048828125 286.70001220703125 L 1281.5 355.79998779296875 Z"/>
		</g>
		<g>
			<path d="M 1198.400024 234 H 1200.900024 V 410.800003 H 1198.400024 V 234 Z" transform="matrix(0.9201 0.3917 -0.3917 0.9201 222.1275 -444.141)"/>
		</g>
		<g>
			<path d="M 1198.400024 234 H 1200.900024 V 410.800003 H 1198.400024 V 234 Z" transform="matrix(0.9201 0.3917 -0.3917 0.9201 222.1275 -444.141)"/>
		</g>
		<g>
			<path d="M 1198.400024 234 H 1200.900024 V 410.800003 H 1198.400024 V 234 Z" transform="matrix(0.3746 0.9272 -0.9272 0.3746 1049.1906 -910.7078)"/>
		</g>
		<g>
			<path d="M 1111.300049 321.100006 H 1288.100052 V 323.600006 H 1111.300049 V 321.100006 Z" transform="matrix(0.3746 0.9272 -0.9272 0.3746 1049.1785 -910.7056)"/>
		</g>
		<g>
			<path d="M 1111.300049 321.100006 H 1288.100052 V 323.600006 H 1111.300049 V 321.100006 Z" transform="matrix(0.3746 0.9272 -0.9272 0.3746 1049.1785 -910.7056)"/>
		</g>
		<g>
			<path d="M 1198.400024 234 H 1200.900024 V 410.800003 H 1198.400024 V 234 Z"/>
		</g>
		<g>
			<path d="M 1111.300049 321.100006 H 1288.100052 V 323.600006 H 1111.300049 V 321.100006 Z"/>
		</g>
		<g>
			<path d="M 1111.300049 321.100006 H 1288.100052 V 323.600006 H 1111.300049 V 321.100006 Z"/>
		</g>
		<g>
			<path d="M 1111.300049 321.100006 H 1288.100052 V 323.600006 H 1111.300049 V 321.100006 Z" transform="matrix(0.7071 0.7071 -0.7071 0.7071 579.3527 -753.8878)"/>
		</g>
		<g>
			<path d="M 1198.400024 234 H 1200.900024 V 410.800003 H 1198.400024 V 234 Z" transform="matrix(0.7063 0.7079 -0.7079 0.7063 580.5048 -754.5516)"/>
		</g>
		<g>
			<path d="M 1198.400024 234 H 1200.900024 V 410.800003 H 1198.400024 V 234 Z" transform="matrix(0.7063 0.7079 -0.7079 0.7063 580.5048 -754.5516)"/>
		</g>
		<g>
			<path d="M 1280.5 358.1000061035156 L 1117.800048828125 289 L 1118.800048828125 286.70001220703125 L 1281.5 355.79998779296875 Z"/>
		</g>
		<g>
			<path d="M 1198.400024 234 H 1200.900024 V 410.800003 H 1198.400024 V 234 Z" transform="matrix(0.9201 0.3917 -0.3917 0.9201 222.1275 -444.141)"/>
		</g>
		<g>
			<path d="M 1198.400024 234 H 1200.900024 V 410.800003 H 1198.400024 V 234 Z" transform="matrix(0.9201 0.3917 -0.3917 0.9201 222.1275 -444.141)"/>
		</g>
		<g>
			<path d="M 1198.400024 234 H 1200.900024 V 410.800003 H 1198.400024 V 234 Z" transform="matrix(0.3746 0.9272 -0.9272 0.3746 1049.1906 -910.7078)"/>
		</g>
		<g>
			<path d="M 1111.300049 321.100006 H 1288.100052 V 323.600006 H 1111.300049 V 321.100006 Z" transform="matrix(0.3746 0.9272 -0.9272 0.3746 1049.1785 -910.7056)"/>
		</g>
		<g>
			<path d="M 1111.300049 321.100006 H 1288.100052 V 323.600006 H 1111.300049 V 321.100006 Z" transform="matrix(0.3746 0.9272 -0.9272 0.3746 1049.1785 -910.7056)"/>
		</g>
	</g>
	<g>

			<path d="M 901.299988 162.100006 H 932.899988 V 172.200006 H 901.299988 V 162.100006 Z" transform="matrix(0.4246 0.9054 -0.9054 0.4246 679.0359 -734.1044)" class="st5" style="fill: rgb(122, 122, 122);"/>
	</g>
	<g>
		<path class="st5" d="M1097.8,145.2c-2.1-2.3-13-13.9-15.2-19.9c-1.1-3-1.8-9.5-0.5-13.2c0.9-2.5,3.5-5.5,7.8-9&#10;&#9;&#9;&#9;c1.8-1.5,4.4-2.8,7.1-4.3c2-1.1,4.2-2.2,5.2-3.1c5.3-4.1,6.4-5.7,6.6-6.2c0.5-1.1,0.7-4.7,0.3-5.8c-0.4-0.9-2.9-3.3-4.1-4&#10;&#9;&#9;&#9;c-1.5-0.8-6.3-1.8-10.7-2.2c-3.5-0.3-14,0.5-17.8,0.9l-0.8-9.2c1.5-0.1,14.5-1.3,19.4-0.9c1.7,0.1,10.2,1,14.5,3.3&#10;&#9;&#9;&#9;c2.5,1.4,6.9,5.4,8.2,8.8c1.3,3.5,0.8,9.8-0.5,12.8c-1.4,3.2-5.4,6.6-9.4,9.7c-1.7,1.3-4,2.5-6.5,3.9c-2.1,1.1-4.5,2.4-5.6,3.3&#10;&#9;&#9;&#9;c-2.9,2.4-4.7,4.4-4.9,5c-0.4,1.1-0.2,5.2,0.5,6.9c1.2,3.1,8.4,11.7,13.2,16.7L1097.8,145.2z" style="fill: rgb(122, 122, 122);"/>
	</g>
	<g>
		<path class="st8" d="M1077.7,76c-0.1,2.9-2.5,5.2-5.4,5.1l-37.4-1.3c-2.9-0.1-5.2-2.5-5.1-5.4l0.1-3.4c0.1-2.9,2.5-5.2,5.5-5.1&#10;&#9;&#9;&#9;l37.4,1.3c2.9,0.1,5.2,2.5,5.1,5.4L1077.7,76z" style="fill: rgb(53, 53, 53);"/>
	</g>
	<g>
		<path class="st8" d="M916.5,154c4.6-0.9,13.9-3,18.4-4.2c4.4-1.2,14.5-2,17.4-5.5c1.2-1.5,0.8-6.2-0.4-7.8&#10;&#9;&#9;&#9;c-1.5-1.9-6.7-2.4-9.1-2.7c-5.8-0.7-16.8,0.8-22.6,1.1c-3.6,0.2-11.8,0.2-15.4-0.1c-4-0.3-11.8-2.3-15.8-2.6&#10;&#9;&#9;&#9;c-2.7-0.2-8.3-0.3-10.9,0.5c-2.1,0.6-6.1,2.8-7.3,4.5c-1.3,1.7-2.6,6.2-2.1,8.3c0.8,3.3,5.9,8.8,8.9,10.3&#10;&#9;&#9;&#9;c4.1,2.1,13.9,1.8,18.6,1.7C901.2,157.3,911.4,155,916.5,154z" style="fill: rgb(53, 53, 53);"/>
	</g>
	<g>
		<g>
			<g>
				<path class="st8" d="M843,429.5c-49.9,2.3-92.4-36.4-94.7-86.2c-2.3-49.9,36.4-92.4,86.3-94.7c49.9-2.3,92.4,36.4,94.7,86.2&#10;&#9;&#9;&#9;&#9;&#9;C931.6,384.7,892.9,427.2,843,429.5z M835.2,262.4c-42.2,2-75,37.9-73,80.1c2,42.2,37.9,75,80.1,73c42.2-2,75-37.9,73-80.1&#10;&#9;&#9;&#9;&#9;&#9;C913.4,293.2,877.4,260.5,835.2,262.4z" style="fill: rgb(53, 53, 53);"/>
			</g>
		</g>
	</g>
	<g>
		<g>
			<g>
				<path class="st8" d="M1204.9,425.2c-57.2,2.7-105.8-41.7-108.5-98.8c-2.7-57.2,41.7-105.8,98.8-108.5&#10;&#9;&#9;&#9;&#9;&#9;c57.2-2.7,105.8,41.7,108.5,98.8C1306.4,373.9,1262,422.5,1204.9,425.2z M1196,233.8c-48.4,2.3-85.9,43.5-83.6,91.8&#10;&#9;&#9;&#9;&#9;&#9;c2.3,48.4,43.4,85.9,91.8,83.6c48.4-2.3,85.9-43.5,83.6-91.8C1285.5,269.1,1244.3,231.6,1196,233.8z" style="fill: rgb(53, 53, 53);"/>
			</g>
		</g>
	</g>
	<g>
		<g>
			<path d="M842.6,421c-45.2,2.1-83.7-32.9-85.8-78.1c-2.1-45.2,32.9-83.6,78.1-85.8c45.2-2.1,83.6,32.9,85.8,78.1&#10;&#9;&#9;&#9;&#9;C922.8,380.4,887.8,418.8,842.6,421z M835.2,261.5c-42.8,2-75.9,38.4-73.9,81.2c2,42.8,38.4,75.9,81.2,73.9&#10;&#9;&#9;&#9;&#9;c42.8-2,75.9-38.4,73.9-81.2C914.3,292.6,877.9,259.5,835.2,261.5z"/>
		</g>
	</g>
	<g>
		<g>
			<path d="M1204.7,415.4c-51.8,2.4-95.8-37.7-98.2-89.5c-2.4-51.8,37.7-95.8,89.5-98.2c51.8-2.4,95.8,37.7,98.2,89.5&#10;&#9;&#9;&#9;&#9;C1296.6,368.9,1256.5,413,1204.7,415.4z M1196.2,232.7c-49,2.3-87,44-84.7,93c2.3,49,44,87,93,84.7c49-2.3,87-44,84.7-93&#10;&#9;&#9;&#9;&#9;C1286.9,268.4,1245.2,230.4,1196.2,232.7z"/>
		</g>
	</g>
	<g>
		<path class="st5" d="M859.9,337.4c0.5,11.1-8,20.5-19.1,21c-11.1,0.5-20.5-8-21-19.1c-0.5-11.1,8-20.5,19.1-21&#10;&#9;&#9;&#9;C850,317.8,859.4,326.3,859.9,337.4z" style="fill: rgb(122, 122, 122);"/>
	</g>
	<g>
		<path class="st5" d="M1219.3,320.6c0.5,11.1-8,20.5-19.1,21c-11.1,0.5-20.5-8-21-19.1c-0.5-11.1,8-20.5,19.1-21&#10;&#9;&#9;&#9;C1209.4,301,1218.7,309.6,1219.3,320.6z" style="fill: rgb(122, 122, 122);"/>
	</g>
	<g>
		<path class="st9" d="M1193.4,318.2l8.8-4.9l-92.9-165.7c2.2-2.6,3-5.9,1.7-8.7l-0.8-1.8c-1.9-4.2-7.9-5.5-13.3-3&#10;&#9;&#9;&#9;c-5.4,2.5-8.2,7.9-6.3,12.1l0.8,1.8c1.4,3.1,5,4.6,8.9,4.2l12,21.4L940,205.6l-5.3-11.6c2.9-2.8,4-6.5,2.6-9.6l-0.8-1.8&#10;&#9;&#9;&#9;c-1.9-4.2-7.9-5.5-13.3-3c-5.4,2.5-8.2,7.9-6.3,12.1l0.8,1.8c1.3,2.7,4.2,4.2,7.7,4.3l6.4,14.1l-93.5,118l-0.3,0l0,0.4l-3.8,4.7&#10;&#9;&#9;&#9;l3.5,2.8l-0.1,2.1l2.8,0.1l1.6,1.3l0.9-1.2l149.5,4.3l1.3,2.8l9.2-4.2l-1-2.2L1127.1,200L1193.4,318.2z M850.8,330.2l85.7-108.1&#10;&#9;&#9;&#9;l51.3,112L850.8,330.2z M997.4,330.8L944.3,215l173.2-32l4.3,7.7L997.4,330.8z" style="fill: rgb(156, 216, 196);"/>
	</g>
	<g>
		<path class="st7" d="M851.9,337.8c0.3,6.7-4.9,12.4-11.6,12.7c-6.7,0.3-12.4-4.9-12.7-11.5c-0.3-6.7,4.9-12.4,11.5-12.7&#10;&#9;&#9;&#9;C846,325.9,851.6,331.1,851.9,337.8z" style="fill: rgb(86, 86, 86);"/>
	</g>
	<g>
		<path class="st7" d="M1211.3,321c0.3,6.7-4.9,12.4-11.5,12.7c-6.7,0.3-12.4-4.9-12.7-11.5c-0.3-6.7,4.9-12.4,11.6-12.7&#10;&#9;&#9;&#9;C1205.3,309.2,1211,314.3,1211.3,321z" style="fill: rgb(86, 86, 86);"/>
	</g>
	<g>
		<path d="M 1012.0999755859375 385.20001220703125 L 995 348.79998779296875 L 1002.9000244140625 345.1000061035156 L 1019.9000244140625 381.5 Z" class="st5" style="fill: rgb(122, 122, 122);"/>
	</g>
	<g>

			<path d="M 997.700012 346.299988 H 1024.900013 V 352.199988 H 997.700012 V 346.299988 Z" transform="matrix(0.8204 0.5717 -0.5717 0.8204 381.2766 -515.489)" class="st5" style="fill: rgb(122, 122, 122);"/>
	</g>
	<g>

			<path d="M 979 351.5 H 1006.299999 V 357.4 H 979 V 351.5 Z" transform="matrix(-0.2013 0.9795 -0.9795 -0.2013 1539.7302 -546.498)" class="st5" style="fill: rgb(122, 122, 122);"/>
	</g>
	<g>
		<path class="st7" d="M1035.5,389.6c0.1,2.8-1.6,5.2-3.8,5.3l-28.8,1.3c-2.2,0.1-4.2-2.1-4.3-4.9l-0.2-4.1&#10;&#9;&#9;&#9;c-0.1-2.8,1.6-5.2,3.8-5.3l28.8-1.3c2.2-0.1,4.2,2.1,4.3,4.9L1035.5,389.6z" style="fill: rgb(86, 86, 86);"/>
	</g>
	<g>
		<g>
			<g>
				<path d="M996.7,367.4c-16,0.7-29.6-11.6-30.3-27.6c-0.7-16,11.6-29.5,27.6-30.3c16-0.7,29.5,11.6,30.3,27.6&#10;&#9;&#9;&#9;&#9;&#9;C1025.1,353.1,1012.7,366.7,996.7,367.4z M994.3,314.6c-13.2,0.6-23.4,11.8-22.8,25c0.6,13.2,11.8,23.4,25,22.8&#10;&#9;&#9;&#9;&#9;&#9;c13.2-0.6,23.4-11.8,22.8-25C1018.7,324.2,1007.5,314,994.3,314.6z"/>
			</g>
		</g>
	</g>
	<g>
		<g>
			<g>
				<path class="st8" d="M997,372.5c-18.7,0.9-34.7-13.7-35.6-32.4c-0.9-18.7,13.7-34.7,32.4-35.6c18.7-0.9,34.7,13.7,35.6,32.4&#10;&#9;&#9;&#9;&#9;&#9;C1030.2,355.6,1015.7,371.6,997,372.5z M994,309.6c-16,0.7-28.3,14.3-27.6,30.3c0.7,16,14.3,28.3,30.3,27.6&#10;&#9;&#9;&#9;&#9;&#9;c16-0.7,28.3-14.3,27.6-30.3C1023.6,321.2,1010,308.8,994,309.6z" style="fill: rgb(53, 53, 53);"/>
			</g>
		</g>
	</g>
	<g>
		<path class="st8" d="M1008.1,338.2c0.3,7-5.1,13-12.1,13.3c-7,0.3-13-5.1-13.3-12.1c-0.3-7,5.1-13,12.1-13.3&#10;&#9;&#9;&#9;C1001.8,325.8,1007.7,331.2,1008.1,338.2z" style="fill: rgb(53, 53, 53);"/>
	</g>
	<g>
		<path d="M 1006.500025 338.799988 A 11.1 11.1 0 0 1 995.400024 349.899988 A 11.1 11.1 0 0 1 984.300024 338.799988 A 11.1 11.1 0 0 1 995.400024 327.699987 A 11.1 11.1 0 0 1 1006.500025 338.799988 Z" class="st7" style="fill: rgb(86, 86, 86);"/>
	</g>
</g>


</svg>
